<?xml version="1.0" encoding="utf-8"?>
<!-- Generator: Adobe Illustrator 18.1.1, SVG Export Plug-In . SVG Version: 6.00 Build 0)  -->
<!DOCTYPE svg PUBLIC "-//W3C//DTD SVG 1.1//EN" "http://www.w3.org/Graphics/SVG/1.1/DTD/svg11.dtd">
<svg version="1.1" id="Layer_1" xmlns="http://www.w3.org/2000/svg" xmlns:xlink="http://www.w3.org/1999/xlink" x="0px" y="0px"
	 viewBox="0 0 70 69" enable-background="new 0 0 70 69" xml:space="preserve">
<g>
	<g>
		<path fill="#00A9C5" d="M1.6,8h3.7v1H0.5V0.4h1.2V8z"/>
		<path fill="#00A9C5" d="M14.2,4.7c0,0.6-0.1,1.2-0.3,1.8c-0.2,0.5-0.5,1-0.9,1.4s-0.8,0.7-1.3,0.9C11.2,9,10.6,9.1,9.9,9.1
			S8.7,9,8.2,8.8c-0.5-0.2-1-0.5-1.3-0.9S6.2,7,6,6.5C5.8,5.9,5.7,5.4,5.7,4.7c0-0.6,0.1-1.2,0.3-1.8s0.5-1,0.9-1.4s0.8-0.7,1.3-0.9
			c0.5-0.2,1.1-0.3,1.7-0.3s1.2,0.1,1.7,0.3c0.5,0.2,1,0.5,1.3,0.9s0.7,0.9,0.9,1.4S14.2,4.1,14.2,4.7z M13,4.7c0-0.5-0.1-1-0.2-1.4
			c-0.1-0.4-0.3-0.8-0.6-1.1c-0.3-0.3-0.6-0.5-1-0.7s-0.8-0.2-1.3-0.2c-0.5,0-0.9,0.1-1.3,0.2S8,1.9,7.7,2.2S7.3,2.9,7.1,3.3
			C7,3.7,6.9,4.2,6.9,4.7s0.1,1,0.2,1.4c0.1,0.4,0.3,0.8,0.6,1.1c0.3,0.3,0.6,0.5,1,0.7C9.1,8,9.5,8.1,9.9,8.1
			c0.5,0,0.9-0.1,1.3-0.2c0.4-0.2,0.7-0.4,1-0.7c0.3-0.3,0.5-0.6,0.6-1.1C12.9,5.7,13,5.2,13,4.7z"/>
		<path fill="#00A9C5" d="M22.6,9h-0.9c-0.1,0-0.2,0-0.3-0.1c-0.1-0.1-0.1-0.1-0.1-0.2l-0.8-2.1h-3.9l-0.8,2.1
			c0,0.1-0.1,0.1-0.1,0.2C15.6,9,15.6,9,15.5,9h-0.9L18,0.4h1.2L22.6,9z M17,5.8h3.2l-1.3-3.5c0-0.1-0.1-0.2-0.1-0.4
			s-0.1-0.3-0.1-0.4c0,0.2-0.1,0.3-0.1,0.4s-0.1,0.3-0.1,0.4L17,5.8z"/>
		<path fill="#00A9C5" d="M31.2,4.7c0,0.6-0.1,1.2-0.3,1.8s-0.5,1-0.9,1.4s-0.8,0.7-1.3,0.9C28.2,8.9,27.6,9,27,9h-3.2V0.4H27
			c0.6,0,1.2,0.1,1.7,0.3c0.5,0.2,1,0.5,1.3,0.9s0.7,0.8,0.9,1.4C31.1,3.5,31.2,4.1,31.2,4.7z M30,4.7c0-0.5-0.1-1-0.2-1.4
			c-0.1-0.4-0.3-0.8-0.6-1.1c-0.3-0.3-0.6-0.5-1-0.7c-0.4-0.2-0.8-0.2-1.3-0.2h-2v6.7h2c0.5,0,0.9-0.1,1.3-0.2s0.7-0.4,1-0.7
			c0.3-0.3,0.5-0.6,0.6-1.1C29.9,5.7,30,5.2,30,4.7z"/>
		<path fill="#00A9C5" d="M40.3,6.2c0,0.1,0.1,0.2,0.1,0.3c0-0.1,0.1-0.2,0.1-0.3c0-0.1,0.1-0.2,0.1-0.3l2.9-5.3
			c0-0.1,0.1-0.1,0.2-0.2c0.1,0,0.1,0,0.2,0h0.9V9h-1V2.7c0-0.1,0-0.2,0-0.3s0-0.2,0-0.3l-2.9,5.4c-0.1,0.2-0.2,0.3-0.4,0.3h-0.2
			c-0.2,0-0.3-0.1-0.4-0.3l-3-5.4c0,0.1,0,0.2,0,0.3c0,0.1,0,0.2,0,0.3V9h-1V0.4h0.9c0.1,0,0.2,0,0.2,0c0.1,0,0.1,0.1,0.2,0.2l3,5.3
			C40.2,6,40.3,6.1,40.3,6.2z"/>
		<path fill="#00A9C5" d="M55,4.7c0,0.6-0.1,1.2-0.3,1.8c-0.2,0.5-0.5,1-0.9,1.4S53,8.6,52.5,8.8C52,9,51.4,9.1,50.8,9.1
			S49.6,9,49.1,8.8c-0.5-0.2-1-0.5-1.3-0.9S47.1,7,46.9,6.5c-0.2-0.5-0.3-1.1-0.3-1.8c0-0.6,0.1-1.2,0.3-1.8s0.5-1,0.9-1.4
			s0.8-0.7,1.3-0.9c0.5-0.2,1.1-0.3,1.7-0.3s1.2,0.1,1.7,0.3c0.5,0.2,1,0.5,1.3,0.9s0.7,0.9,0.9,1.4S55,4.1,55,4.7z M53.8,4.7
			c0-0.5-0.1-1-0.2-1.4c-0.1-0.4-0.3-0.8-0.6-1.1c-0.3-0.3-0.6-0.5-1-0.7s-0.8-0.2-1.3-0.2c-0.5,0-0.9,0.1-1.3,0.2s-0.7,0.4-1,0.7
			S48.1,2.9,48,3.3c-0.1,0.4-0.2,0.9-0.2,1.4s0.1,1,0.2,1.4c0.1,0.4,0.3,0.8,0.6,1.1c0.3,0.3,0.6,0.5,1,0.7c0.4,0.2,0.8,0.2,1.3,0.2
			c0.5,0,0.9-0.1,1.3-0.2c0.4-0.2,0.7-0.4,1-0.7c0.3-0.3,0.5-0.6,0.6-1.1C53.8,5.7,53.8,5.2,53.8,4.7z"/>
		<path fill="#00A9C5" d="M57.9,5.4V9h-1.2V0.4h2.4c0.5,0,1,0.1,1.4,0.2c0.4,0.1,0.7,0.3,1,0.5s0.4,0.5,0.6,0.8s0.2,0.6,0.2,1
			c0,0.3,0,0.6-0.1,0.9c-0.1,0.3-0.2,0.5-0.4,0.7c-0.2,0.2-0.4,0.4-0.7,0.5c-0.3,0.2-0.6,0.3-0.9,0.3c0.2,0.1,0.3,0.2,0.4,0.4L63,9
			h-1c-0.2,0-0.4-0.1-0.5-0.2l-2.2-3.1c-0.1-0.1-0.1-0.2-0.2-0.2s-0.2-0.1-0.4-0.1H57.9z M57.9,4.6h1.2c0.3,0,0.6,0,0.9-0.1
			s0.5-0.2,0.6-0.3C60.8,4,60.9,3.8,61,3.6s0.1-0.4,0.1-0.7c0-0.5-0.2-0.9-0.5-1.2s-0.8-0.4-1.5-0.4h-1.3V4.6z"/>
		<path fill="#00A9C5" d="M69.5,0.4v0.9h-4.1v2.9h3.3v0.9h-3.3v2.9h4.1l0,0.9h-5.3V0.4H69.5z"/>
	</g>
	<g>
		<polygon fill="#00A9C5" points="44.4,33.7 34.7,50.2 25,33.7 		"/>
		<polygon fill="#00A9C5" points="44.4,52.2 34.7,68.7 25,52.2 		"/>
	</g>
</g>
</svg>
