<svg version="1.1" id="Layer_1" xmlns="http://www.w3.org/2000/svg" xmlns:xlink="http://www.w3.org/1999/xlink" x="0px" y="0px"
	 viewBox="0 0 70 14" enable-background="new 0 0 70 14" xml:space="preserve">
<g>
	<g>
		<path fill="#7E7D7E" d="M2.0269949,4.6458726c0.021003,0.0035663,0.0396285,0.0094118,0.0559752,0.0175357
			C2.0992672,4.6716309,2.1156633,4.6832223,2.13201,4.69838c0.0162971,0.0152569,0.0337832,0.0344768,0.052458,0.0577583
			l2.9014857,3.7764792C5.0812478,8.4719858,5.0771861,8.4130383,5.0737185,8.355875
			c-0.0035172-0.0571642-0.0052509-0.111455-0.0052509-0.1627731V4.6406217h0.5949697v5.0154576H5.3239713
			c-0.0537457,0-0.0986247-0.0093126-0.1347857-0.0280371C5.1530247,9.609417,5.1174583,9.5779133,5.0824366,9.5336285
			L2.1810005,5.7571492c0.0046563,0.0583529,0.0081239,0.1155167,0.0105016,0.1714916
			c0.0022786,0.055975,0.0034676,0.1072936,0.0034676,0.1539559v3.5734825H1.6V4.6406217h0.3500171
			C1.9802831,4.6406217,2.0059919,4.642405,2.0269949,4.6458726z"/>
		<path fill="#7E7D7E" d="M10.0348358,4.6406217V5.193635H7.6233544v1.6659741h1.9529824v0.5320101H7.6233544v1.7114472h2.4149985
			l-0.0035172,0.5530128H6.9443731V4.6406217H10.0348358z"/>
		<path fill="#7E7D7E" d="M12.1417742,7.0801406l-1.6554728-2.4395189h0.6755142
			c0.0489902,0,0.0851517,0.0082231,0.1084824,0.0245695c0.0232821,0.0163469,0.0442848,0.0396285,0.0630093,0.0699439
			l1.3089724,2.0089574c0.0162973-0.0489411,0.0408173-0.1026373,0.0735111-0.1609902l1.2354622-1.8339977
			c0.0186749-0.0325947,0.0408163-0.0588484,0.0665255-0.0786624c0.0256596-0.019814,0.055975-0.0298204,0.0909967-0.0298204
			h0.6474771L13.0937948,7.048636l1.718482,2.6074433h-0.6719971c-0.0513687,0-0.0915909-0.0133743-0.1207676-0.0402222
			c-0.0291767-0.0268488-0.0531015-0.0565691-0.0717268-0.089263l-1.3439941-2.1034708
			c-0.0163469,0.0489411-0.0373497,0.0957026-0.0630093,0.139987l-1.3089724,1.9634838
			c-0.0233812,0.0326939-0.0484457,0.0624142-0.0752449,0.089263c-0.0268478,0.0268478-0.0636034,0.0402222-0.1102657,0.0402222
			h-0.6299906L12.1417742,7.0801406z"/>
		<path fill="#7E7D7E" d="M18.9210892,4.6406217v0.5705485H17.297121v4.4449091h-0.6754646V5.2111702h-1.6274862V4.6406217
			H18.9210892z"/>
		<path fill="#7E7D7E" d="M21.9205551,7.7800756v1.8760037h-0.6755142V4.6406217h1.4804649
			c0.3173237,0,0.593235,0.0367556,0.8277359,0.1102657c0.2345009,0.0735106,0.4287777,0.1779313,0.5827827,0.313262
			c0.1539574,0.1353307,0.2688789,0.2986984,0.344717,0.4900041c0.0757904,0.1913056,0.1137333,0.4048033,0.1137333,0.6404924
			c0,0.2333117-0.0408173,0.4468093-0.1224518,0.6404924c-0.0817318,0.1936836-0.2012615,0.3605189-0.3587837,0.5005059
			c-0.1574726,0.139987-0.3523445,0.2490635-0.5844688,0.3272305c-0.2322216,0.078167-0.4999599,0.1172009-0.8032646,0.1172009
			H21.9205551z M21.9205551,7.2411304h0.8049507c0.1936836,0,0.3645802-0.0256591,0.5127392-0.0769777
			c0.1481609-0.0513186,0.2730408-0.1230459,0.3745384-0.215281c0.1014977-0.0921359,0.1778812-0.2024016,0.2292004-0.3307972
			c0.0513172-0.1282969,0.0770264-0.2694726,0.0770264-0.4234285c0-0.3197012-0.0986252-0.5693598-0.2957249-0.7489748
			c-0.1972008-0.1797147-0.4964943-0.2695718-0.8977795-0.2695718h-0.8049507V7.2411304z"/>
		<path fill="#7E7D7E" d="M26.1239796,7.5631104v2.0929689h-0.6755142V4.6406217h1.4175549
			c0.3172245,0,0.5914516,0.0320992,0.822485,0.0962968c0.230835,0.064198,0.4216461,0.1569281,0.5722332,0.2781906
			c0.1503887,0.1213617,0.2617455,0.2677884,0.3342648,0.43928c0.0721226,0.1714916,0.1083832,0.3634906,0.1083832,0.5757003
			c0,0.1773367-0.0279388,0.3429832-0.084013,0.4970379c-0.0558758,0.1539559-0.1371136,0.2922587-0.2431183,0.4147105
			c-0.106205,0.1225505-0.2357883,0.2275653-0.3885555,0.3150449s-0.3261414,0.1522717-0.5197258,0.1941791
			c0.0885696,0.0560737,0.163269,0.1272068,0.2238998,0.2134972l1.4630775,1.9915204h-0.6019535
			c-0.1238384,0-0.2147865-0.0477514-0.2730408-0.1434536L26.9779701,7.720633
			c-0.039629-0.0560741-0.0822296-0.0962968-0.1278019-0.1207671c-0.0453739-0.0244708-0.1161118-0.0367556-0.211813-0.0367556
			H26.1239796z M26.1239796,7.0696392h0.7139034c0.1959629,0,0.3693371-0.0238762,0.5197258-0.0717273
			c0.1505871-0.0478516,0.2766056-0.1155167,0.3780537-0.2030954c0.1014481-0.0874791,0.1779308-0.1918006,0.22925-0.3131623
			s0.0770779-0.2555037,0.0770779-0.4025249c0-0.2986984-0.0980816-0.523787-0.2940426-0.6754642
			c-0.1959629-0.1516776-0.4900036-0.2275658-0.8819275-0.2275658h-0.7420406V7.0696392z"/>
		<path fill="#7E7D7E" d="M34.4118423,7.1500845c0,0.3756762-0.0595398,0.7204428-0.178524,1.0342989
			s-0.2870064,0.5839233-0.5039711,0.8102007c-0.2169647,0.2263765-0.4777222,0.4019299-0.7822647,0.5267591
			c-0.3044434,0.1248293-0.6410866,0.1872444-1.0097294,0.1872444s-0.7046909-0.0624151-1.007946-0.1872444
			c-0.3033543-0.1248293-0.5635147-0.3003826-0.7804794-0.5267591c-0.2170639-0.2262774-0.3849888-0.4963446-0.503973-0.8102007
			c-0.1190834-0.3138561-0.1785259-0.6586227-0.1785259-1.0342989c0-0.3755774,0.0594425-0.7203436,0.1785259-1.0341997
			c0.1189842-0.3137574,0.2869091-0.5845175,0.503973-0.8119841c0.2169647-0.2274666,0.4771252-0.4043078,0.7804794-0.5302267
			c0.3032551-0.126018,0.6393032-0.1890273,1.007946-0.1890273s0.705286,0.0630093,1.0097294,0.1890273
			c0.3045425,0.1259189,0.5653,0.3027601,0.7822647,0.5302267s0.3849869,0.4982266,0.5039711,0.8119841
			C34.3523026,6.4297409,34.4118423,6.774507,34.4118423,7.1500845z M33.7153778,7.1500845
			c0-0.3080111-0.0420074-0.5844183-0.1260185-0.8294206c-0.0840111-0.2450018-0.2029953-0.4520597-0.3569527-0.6212726
			c-0.1540565-0.1691141-0.3407059-0.299293-0.5600471-0.3902402c-0.2193413-0.0910459-0.464344-0.1365194-0.7350063-0.1365194
			c-0.2682838,0-0.5121956,0.0454736-0.7314396,0.1365194c-0.2193432,0.0909472-0.4065857,0.2211261-0.5617313,0.3902402
			c-0.1552429,0.1692128-0.2748222,0.3762708-0.3587341,0.6212726c-0.084013,0.2450023-0.1260185,0.5214095-0.1260185,0.8294206
			s0.0420055,0.584022,0.1260185,0.8277364c0.0839119,0.2439122,0.2034912,0.450376,0.3587341,0.6194892
			c0.1551456,0.1692133,0.3423882,0.2986984,0.5617313,0.3885555c0.219244,0.0898571,0.4631557,0.134737,0.7314396,0.134737
			c0.2706623,0,0.5156651-0.0448799,0.7350063-0.134737s0.4059906-0.2193422,0.5600471-0.3885555
			c0.1539574-0.1691132,0.2729416-0.375577,0.3569527-0.6194892C33.6733704,7.7341065,33.7153778,7.4580956,33.7153778,7.1500845z"
			/>
		<path fill="#7E7D7E" d="M36.8582001,7.9236293c0,0.2799735-0.0344772,0.5308213-0.1032333,0.7524419
			c-0.0688553,0.2217207-0.1704025,0.4089642-0.3045425,0.5617313c-0.1341438,0.1528664-0.2991943,0.2701664-0.4952545,0.3518009
			c-0.1959648,0.0816345-0.4211502,0.1224508-0.6754646,0.1224508c-0.2310333,0-0.4667244-0.0326929-0.7069702-0.0979805
			l0.0349731-0.3989582c0.0046539-0.0397272,0.0192184-0.071826,0.0437889-0.0962963
			c0.0244713-0.0244713,0.0624123-0.0367556,0.1137314-0.0367556c0.0420074,0,0.0973892,0.0105019,0.1662407,0.0315046
			c0.0687561,0.0210028,0.1615868,0.0315046,0.2782898,0.0315046c0.1539574,0,0.2915649-0.0232821,0.4129295-0.0699444
			c0.1213608-0.0466623,0.2228088-0.1190825,0.3045425-0.2170639c0.0816345-0.0979815,0.1440506-0.2234049,0.1872444-0.3761721
			c0.0430946-0.1528664,0.0646935-0.3342648,0.0646935-0.5442944V4.6406217h0.6790314V7.9236293z"/>
		<path fill="#7E7D7E" d="M41.1769905,4.6406217V5.193635h-2.4113808v1.6659741h1.95298v0.5320101h-1.95298v1.7114472h2.4149475
			l-0.0035667,0.5530128h-3.0904121V4.6406217H41.1769905z"/>
		<path fill="#7E7D7E" d="M45.5450211,8.6200962c0.0372505,0,0.0699463,0.0151587,0.0979805,0.0454741l0.269474,0.2904758
			c-0.2053757,0.2380667-0.4544373,0.4235268-0.7471924,0.5565796c-0.2928543,0.1329527-0.6469307,0.1994286-1.0622368,0.1994286
			c-0.3593292,0-0.6860657-0.0624142-0.9800072-0.1872435c-0.2940445-0.1247301-0.5448914-0.2997885-0.7525444-0.5249758
			c-0.2076492-0.2251883-0.3686409-0.4952545-0.4829674-0.8102007c-0.1143303-0.3150454-0.1714935-0.6614957-0.1714935-1.0395498
			c0-0.377955,0.0595436-0.7245045,0.1785278-1.0394506c0.1189842-0.3150449,0.2864113-0.5856071,0.5021896-0.8119841
			c0.2158737-0.2262774,0.4742508-0.4019299,0.7753258-0.5267591c0.3009796-0.1248293,0.633461-0.1872439,0.9974442-0.1872439
			c0.3569527,0,0.6719971,0.0571637,0.9449387,0.1714916c0.2730408,0.1143274,0.5133858,0.2694726,0.7210388,0.4655337
			l-0.223999,0.3114781c-0.0139694,0.0233808-0.0321007,0.0426006-0.0542908,0.0577583
			c-0.0221939,0.0151582-0.0519142,0.0226874-0.0891647,0.0226874c-0.0420074,0-0.0934258-0.0226874-0.1540565-0.0682597
			c-0.06073-0.0454736-0.1399879-0.0961981-0.2379684-0.152173c-0.0979805-0.0560737-0.2205315-0.1067982-0.3675499-0.1522717
			c-0.1469231-0.0454736-0.3278275-0.0682597-0.5424156-0.0682597c-0.2590675,0-0.4958458,0.0449781-0.7105331,0.1347365
			c-0.2146873,0.0898571-0.3995514,0.2199368-0.5546989,0.3902397c-0.1552429,0.1704016-0.2760086,0.3780541-0.3623009,0.6230559
			c-0.0862923,0.2450023-0.1294861,0.5214095-0.1294861,0.8294206c0,0.3127666,0.0448799,0.5915518,0.1347351,0.8365536
			c0.089859,0.2450018,0.2123108,0.4520597,0.3675537,0.6211739c0.1551437,0.1692123,0.3382263,0.2981043,0.5494461,0.3867722
			c0.2111206,0.0886688,0.4392815,0.1329527,0.6842842,0.1329527c0.1492996,0,0.2840347-0.0087175,0.4042091-0.0261545
			c0.1201706-0.0175352,0.2310295-0.0449781,0.3324814-0.0823278c0.1015472-0.0372505,0.1960602-0.084507,0.2835388-0.1416712
			c0.0874786-0.0571632,0.174366-0.1254234,0.2607536-0.2047787C45.4656639,8.6376324,45.5052948,8.6200962,45.5450211,8.6200962z"
			/>
		<path fill="#7E7D7E" d="M50.0914803,4.6406217v0.5705485h-1.62397v4.4449091h-0.6755638V5.2111702h-1.6274338V4.6406217
			H50.0914803z"/>
	</g>
	<polygon points="57.4761581,0.5905808 68.4000015,7.0005035 57.4761581,13.4094191 	"/>
</g>
</svg>
