<svg version="1.1" id="Layer_1" xmlns="http://www.w3.org/2000/svg" xmlns:xlink="http://www.w3.org/1999/xlink" x="0px" y="0px"
	 viewBox="0 0 45 9" enable-background="new 0 0 45 9" xml:space="preserve">
<g>
	<path fill="#00A9C5" d="M5,8.6H4.4c-2.3,0-4.1-1.8-4.1-4.1s1.8-4.1,4.1-4.1H5c2.3,0,4.1,1.8,4.1,4.1S7.3,8.6,5,8.6z"/>
	<path fill="#00A9C5" d="M40.6,8.6H40c-2.3,0-4.1-1.8-4.1-4.1s1.8-4.1,4.1-4.1h0.7c2.3,0,4.1,1.8,4.1,4.1S42.9,8.6,40.6,8.6z"/>
	<path fill="#00A9C5" d="M22.8,8.6h-0.7c-2.3,0-4.1-1.8-4.1-4.1s1.8-4.1,4.1-4.1h0.7c2.3,0,4.1,1.8,4.1,4.1S25.1,8.6,22.8,8.6z"/>
</g>
</svg>
